<?xml version="1.0" encoding="utf-8"?>
<!-- Generator: Adobe Illustrator 24.1.1, SVG Export Plug-In . SVG Version: 6.00 Build 0)  -->
<svg version="1.1" id="Layer_1" xmlns="http://www.w3.org/2000/svg" xmlns:xlink="http://www.w3.org/1999/xlink" x="0px" y="0px"
	 viewBox="0 0 1000 1000" style="enable-background:new 0 0 1000 1000;" xml:space="preserve">
<style type="text/css">
	.st0{fill:#6B00C4;stroke:#000000;stroke-miterlimit:10;}
	.st1{fill-rule:evenodd;clip-rule:evenodd;fill:#FFFFFF;}
	.st2{fill:#E8EAF6;}
	.st3{filter:url(#Adobe_OpacityMaskFilter);}
	.st4{mask:url(#b_2_);}
	.st5{fill-rule:evenodd;clip-rule:evenodd;fill:#242A45;}
	.st6{opacity:0.245;fill-rule:evenodd;clip-rule:evenodd;fill:#FFFFFF;enable-background:new    ;}
	.st7{opacity:0.104;fill-rule:evenodd;clip-rule:evenodd;fill:#FFFFFF;enable-background:new    ;}
	.st8{opacity:0.75;fill-rule:evenodd;clip-rule:evenodd;fill:#FFFFFF;enable-background:new    ;}
	.st9{opacity:0.25;fill-rule:evenodd;clip-rule:evenodd;fill:#FFFFFF;enable-background:new    ;}
	.st10{filter:url(#Adobe_OpacityMaskFilter_1_);}
	.st11{mask:url(#b_1_);}
	.st12{opacity:0.5;fill-rule:evenodd;clip-rule:evenodd;fill:#242A45;enable-background:new    ;}
	.st13{fill-rule:evenodd;clip-rule:evenodd;fill:#F98E5D;}
	.st14{opacity:0.25;fill-rule:evenodd;clip-rule:evenodd;fill:#242A45;enable-background:new    ;}
	.st15{fill-rule:evenodd;clip-rule:evenodd;fill:#6AC6D6;}
	.st16{fill-rule:evenodd;clip-rule:evenodd;fill:#A47ED4;}
	.st17{fill-rule:evenodd;clip-rule:evenodd;fill:#EC7878;}
</style>
<path class="st0" d="M671.42,604.77H-0.35v-507h671.77c134.69-5.79,246.28,103.46,255.69,232.86
	C937.51,473.5,821.09,609.91,671.42,604.77z"/>
<g>
	<g>
		<path id="a_7_" class="st1" d="M200.02-1.88h774.35c6.58,0,11.91,5.63,11.91,12.58v519.06c0,6.95-5.33,12.58-11.91,12.58H200.02
			c-6.58,0-11.91-5.63-11.91-12.58V10.7C188.11,3.75,193.44-1.88,200.02-1.88z"/>
	</g>
	<g>
		<g>
			<path id="a_6_" class="st2" d="M200.02-1.88h774.35c6.58,0,11.91,5.63,11.91,12.58v519.06c0,6.95-5.33,12.58-11.91,12.58H200.02
				c-6.58,0-11.91-5.63-11.91-12.58V10.7C188.11,3.75,193.44-1.88,200.02-1.88z"/>
		</g>
		<defs>
			<filter id="Adobe_OpacityMaskFilter" filterUnits="userSpaceOnUse" x="182.85" y="-1.57" width="814.56" height="92.8">
				<feColorMatrix  type="matrix" values="1 0 0 0 0  0 1 0 0 0  0 0 1 0 0  0 0 0 1 0"/>
			</filter>
		</defs>
		<mask maskUnits="userSpaceOnUse" x="182.85" y="-1.57" width="814.56" height="92.8" id="b_2_">
			<g class="st3">
				<path id="a_3_" class="st1" d="M200.02-1.88h774.35c6.58,0,11.91,5.63,11.91,12.58v519.06c0,6.95-5.33,12.58-11.91,12.58H200.02
					c-6.58,0-11.91-5.63-11.91-12.58V10.7C188.11,3.75,193.44-1.88,200.02-1.88z"/>
			</g>
		</mask>
		<g class="st4">
			<path class="st5" d="M182.85-1.57h814.56v92.8H182.85L182.85-1.57z"/>
			<g transform="translate(22.47 14.197)">
				<ellipse class="st6" cx="222.93" cy="31.42" rx="23.83" ry="25.17"/>
				<ellipse class="st7" cx="909.42" cy="31.42" rx="23.83" ry="25.17"/>
				<g transform="translate(47 6)">
					<path class="st8" d="M226.56,9.69h169.76c2.47,0,4.47,2.11,4.47,4.72l0,0c0,2.61-2,4.72-4.47,4.72H226.56
						c-2.47,0-4.47-2.11-4.47-4.72l0,0C222.09,11.8,224.09,9.69,226.56,9.69z"/>
					<path class="st9" d="M226.56,31.71h86.37c2.47,0,4.47,2.11,4.47,4.72l0,0c0,2.61-2,4.72-4.47,4.72h-86.37
						c-2.47,0-4.47-2.11-4.47-4.72l0,0C222.09,33.82,224.09,31.71,226.56,31.71z"/>
				</g>
			</g>
		</g>
		<defs>
			<filter id="Adobe_OpacityMaskFilter_1_" filterUnits="userSpaceOnUse" x="272.99" y="144.4" width="629.91" height="497.04">
				<feColorMatrix  type="matrix" values="1 0 0 0 0  0 1 0 0 0  0 0 1 0 0  0 0 0 1 0"/>
			</filter>
		</defs>
		<mask maskUnits="userSpaceOnUse" x="272.99" y="144.4" width="629.91" height="497.04" id="b_1_">
			<g class="st10">
				<path id="a_2_" class="st1" d="M200.02-1.88h774.35c6.58,0,11.91,5.63,11.91,12.58v519.06c0,6.95-5.33,12.58-11.91,12.58H200.02
					c-6.58,0-11.91-5.63-11.91-12.58V10.7C188.11,3.75,193.44-1.88,200.02-1.88z"/>
			</g>
		</mask>
		<g class="st11">
			<g transform="translate(57 93)">
				<path class="st1" d="M227.91,51.4h364.84c6.58,0,11.91,5.63,11.91,12.58v471.87c0,6.95-5.33,12.58-11.91,12.58H227.91
					c-6.58,0-11.91-5.63-11.91-12.58V63.98C215.99,57.03,221.33,51.4,227.91,51.4z"/>
				<path class="st1" d="M667.2,51.4h166.78c6.58,0,11.91,5.63,11.91,12.58v471.87c0,6.95-5.33,12.58-11.91,12.58H667.2
					c-6.58,0-11.91-5.63-11.91-12.58V63.98C655.29,57.03,660.62,51.4,667.2,51.4z"/>
				<path class="st12" d="M337.31,111.48h169.76c2.47,0,4.47,2.11,4.47,4.72l0,0c0,2.61-2,4.72-4.47,4.72H337.31
					c-2.47,0-4.47-2.11-4.47-4.72l0,0C332.84,113.59,334.85,111.48,337.31,111.48z"/>
			</g>
		</g>
		<g transform="translate(88.47 115.197)">
			<ellipse class="st13" cx="255.21" cy="105.01" rx="23.83" ry="25.17"/>
			<path class="st14" d="M658.77,64.11h122.11c2.47,0,4.47,2.11,4.47,4.72l0,0c0,2.61-2,4.72-4.47,4.72H658.77
				c-2.47,0-4.47-2.11-4.47-4.72l0,0C654.3,66.23,656.3,64.11,658.77,64.11z"/>
			<path class="st14" d="M658.77,95.57h122.11c2.47,0,4.47,2.11,4.47,4.72l0,0c0,2.61-2,4.72-4.47,4.72H658.77
				c-2.47,0-4.47-2.11-4.47-4.72l0,0C654.3,97.68,656.3,95.57,658.77,95.57z"/>
			<path class="st14" d="M658.77,127.03h122.11c2.47,0,4.47,2.11,4.47,4.72l0,0c0,2.61-2,4.72-4.47,4.72H658.77
				c-2.47,0-4.47-2.11-4.47-4.72l0,0C654.3,129.14,656.3,127.03,658.77,127.03z"/>
			<path class="st14" d="M658.77,158.49h122.11c2.47,0,4.47,2.11,4.47,4.72l0,0c0,2.61-2,4.72-4.47,4.72H658.77
				c-2.47,0-4.47-2.11-4.47-4.72l0,0C654.3,160.6,656.3,158.49,658.77,158.49z"/>
			<path class="st14" d="M658.77,211.97h122.11c2.47,0,4.47,2.11,4.47,4.72l0,0c0,2.61-2,4.72-4.47,4.72H658.77
				c-2.47,0-4.47-2.11-4.47-4.72l0,0C654.3,214.08,656.3,211.97,658.77,211.97z"/>
			<path class="st14" d="M658.77,243.42h122.11c2.47,0,4.47,2.11,4.47,4.72l0,0c0,2.61-2,4.72-4.47,4.72H658.77
				c-2.47,0-4.47-2.11-4.47-4.72l0,0C654.3,245.54,656.3,243.42,658.77,243.42z"/>
			<path class="st14" d="M658.77,274.88h122.11c2.47,0,4.47,2.11,4.47,4.72l0,0c0,2.61-2,4.72-4.47,4.72H658.77
				c-2.47,0-4.47-2.11-4.47-4.72l0,0C654.3,276.99,656.3,274.88,658.77,274.88z"/>
			<path class="st14" d="M305.84,111.3h86.37c2.47,0,4.47,2.11,4.47,4.72l0,0c0,2.61-2,4.72-4.47,4.72h-86.37
				c-2.47,0-4.47-2.11-4.47-4.72l0,0C301.37,113.41,303.38,111.3,305.84,111.3z"/>
		</g>
		<g transform="translate(88.47 181.197)">
			<ellipse class="st15" cx="255.21" cy="127.09" rx="23.83" ry="25.17"/>
			<path class="st12" d="M305.84,111.36H475.6c2.47,0,4.47,2.11,4.47,4.72l0,0c0,2.61-2,4.72-4.47,4.72H305.84
				c-2.47,0-4.47-2.11-4.47-4.72l0,0C301.37,113.47,303.38,111.36,305.84,111.36z"/>
			<path class="st14" d="M305.84,133.38h86.37c2.47,0,4.47,2.11,4.47,4.72l0,0c0,2.61-2,4.72-4.47,4.72h-86.37
				c-2.47,0-4.47-2.11-4.47-4.72l0,0C301.37,135.49,303.38,133.38,305.84,133.38z"/>
		</g>
		<g transform="translate(88.47 237.197)">
			<ellipse class="st16" cx="255.21" cy="159.17" rx="23.83" ry="25.17"/>
			<path class="st12" d="M305.84,143.44H475.6c2.47,0,4.47,2.11,4.47,4.72l0,0c0,2.61-2,4.72-4.47,4.72H305.84
				c-2.47,0-4.47-2.11-4.47-4.72l0,0C301.37,145.56,303.38,143.44,305.84,143.44z"/>
			<path class="st14" d="M305.84,165.46h86.37c2.47,0,4.47,2.11,4.47,4.72l0,0c0,2.61-2,4.72-4.47,4.72h-86.37
				c-2.47,0-4.47-2.11-4.47-4.72l0,0C301.37,167.58,303.38,165.46,305.84,165.46z"/>
		</g>
		<g transform="translate(88.47 293.197)">
			<ellipse class="st17" cx="255.21" cy="191.26" rx="23.83" ry="25.17"/>
			<path class="st12" d="M305.84,175.53H475.6c2.47,0,4.47,2.11,4.47,4.72l0,0c0,2.61-2,4.72-4.47,4.72H305.84
				c-2.47,0-4.47-2.11-4.47-4.72l0,0C301.37,177.64,303.38,175.53,305.84,175.53z"/>
			<path class="st14" d="M305.84,197.55h86.37c2.47,0,4.47,2.11,4.47,4.72l0,0c0,2.61-2,4.72-4.47,4.72h-86.37
				c-2.47,0-4.47-2.11-4.47-4.72l0,0C301.37,199.66,303.38,197.55,305.84,197.55z"/>
		</g>
	</g>
</g>
</svg>
